<svg width="512" height="512" viewBox="0 0 512 512" xmlns="http://www.w3.org/2000/svg">
  <defs>
    <!-- Arkaplan Gradyanı: JSON'daki Hex kodları -->
    <!-- Not: Açıklamada turuncu/pembe yazsa da hex kodları Yeşil/Turkuaz tonlarındadır. -->
    <linearGradient id="bgGradient" x1="0%" y1="0%" x2="0%" y2="100%">
      <stop offset="0%" style="stop-color:#4CAF50;stop-opacity:1" />
      <stop offset="100%" style="stop-color:#00897B;stop-opacity:1" />
    </linearGradient>
  </defs>

  <!-- Arkaplan Katmanı -->
  <rect width="512" height="512" rx="115" ry="115" fill="url(#bgGradient)" />

  <!-- Ön Plan Grubu (Merkeze hizalı) -->
  <g transform="translate(256, 256)">
    
    <!-- 1. Halka: 12 adet damla/çizgi (Radial Array) -->
    <!-- Yarıçap %70 olarak ayarlandı -->
    <g id="ring" fill="white">
        <!-- Her biri 30 derece döndürülmüş 12 eleman -->
        <rect x="-6" y="-160" width="12" height="40" rx="6" ry="6" transform="rotate(0)" />
        <rect x="-6" y="-160" width="12" height="40" rx="6" ry="6" transform="rotate(30)" />
        <rect x="-6" y="-160" width="12" height="40" rx="6" ry="6" transform="rotate(60)" />
        <rect x="-6" y="-160" width="12" height="40" rx="6" ry="6" transform="rotate(90)" />
        <rect x="-6" y="-160" width="12" height="40" rx="6" ry="6" transform="rotate(120)" />
        <rect x="-6" y="-160" width="12" height="40" rx="6" ry="6" transform="rotate(150)" />
        <rect x="-6" y="-160" width="12" height="40" rx="6" ry="6" transform="rotate(180)" />
        <rect x="-6" y="-160" width="12" height="40" rx="6" ry="6" transform="rotate(210)" />
        <rect x="-6" y="-160" width="12" height="40" rx="6" ry="6" transform="rotate(240)" />
        <rect x="-6" y="-160" width="12" height="40" rx="6" ry="6" transform="rotate(270)" />
        <rect x="-6" y="-160" width="12" height="40" rx="6" ry="6" transform="rotate(300)" />
        <rect x="-6" y="-160" width="12" height="40" rx="6" ry="6" transform="rotate(330)" />
    </g>

    <!-- 2. Merkez İkon: Onay İşareti (Checkmark) -->
    <!-- Style: Bold, Round Caps -->
    <path d="M -60 10 L -15 65 L 75 -55" 
          stroke="white" 
          stroke-width="28" 
          fill="none" 
          stroke-linecap="round" 
          stroke-linejoin="round" />
  </g>
</svg>